<?xml version="1.0" standalone="no"?>
<!DOCTYPE svg PUBLIC "-//W3C//DTD SVG 20010904//EN"
 "http://www.w3.org/TR/2001/REC-SVG-20010904/DTD/svg10.dtd">
<svg version="1.0" xmlns="http://www.w3.org/2000/svg"
 width="1080.000000pt" height="1092.000000pt" viewBox="0 0 1080.000000 1092.000000"
 preserveAspectRatio="xMidYMid meet">

<g transform="translate(0.000000,1092.000000) scale(0.100000,-0.100000)"
fill="#000000" stroke="none">
<path d="M0 5460 l0 -5460 5400 0 5400 0 0 5460 0 5460 -5400 0 -5400 0 0
-5460z m4393 2012 c42 -65 77 -121 77 -125 0 -4 -297 -7 -659 -7 l-659 0 -82
-207 c-95 -239 -234 -593 -426 -1078 -74 -187 -140 -351 -145 -365 -42 -97
-559 -1397 -559 -1404 0 -3 1559 -6 3465 -6 1906 0 3465 2 3465 5 0 2 -79 201
-177 442 -97 241 -206 515 -243 608 -37 94 -96 240 -130 325 -34 85 -68 171
-75 190 -8 19 -120 298 -250 620 -130 322 -261 649 -292 728 l-56 142 -655 0
c-558 0 -653 2 -649 14 3 8 39 64 79 125 l73 111 599 0 c444 0 609 -3 640 -12
69 -21 106 -69 163 -213 29 -72 116 -287 194 -480 77 -192 213 -530 301 -750
87 -220 179 -447 203 -505 23 -58 111 -276 195 -485 83 -209 194 -483 245
-610 51 -126 99 -251 105 -276 21 -83 -15 -161 -91 -199 -38 -20 -75 -20
-3648 -20 -2526 0 -3618 3 -3638 11 -64 24 -113 95 -113 164 0 20 31 111 73
217 41 101 172 426 292 723 120 297 242 601 271 675 390 986 672 1673 699
1701 56 60 35 58 710 58 l620 1 78 -118z m3065 -488 c36 -24 53 -72 41 -122
-10 -45 -78 -221 -109 -282 -24 -47 -59 -70 -108 -70 -48 0 -86 28 -102 74
-10 30 -7 42 20 103 17 37 44 113 61 167 16 55 35 106 42 114 34 41 105 49
155 16z m-414 -588 c82 -34 89 -127 14 -186 -38 -30 -217 -113 -321 -149 -111
-39 -164 -40 -206 -5 -27 22 -31 32 -31 74 0 66 15 78 153 124 61 20 162 64
222 96 61 33 116 60 123 60 7 0 28 -6 46 -14z m-2515 -157 c63 -22 83 -119 33
-168 -24 -25 -37 -29 -117 -35 -125 -10 -178 -23 -268 -63 -71 -32 -81 -34
-109 -22 -35 14 -68 62 -68 99 0 38 35 87 77 108 76 39 180 63 368 85 17 2 35
5 41 6 6 0 25 -4 43 -10z m606 -13 c127 -8 243 -19 258 -25 40 -16 63 -73 48
-121 -6 -19 -23 -43 -37 -54 -24 -17 -37 -18 -287 -5 l-262 12 -32 33 c-52 51
-42 133 19 159 40 17 14 17 293 1z m1141 -70 c38 -38 43 -70 19 -115 -28 -55
-65 -63 -315 -69 -247 -5 -284 0 -320 45 -28 36 -26 94 4 130 l24 28 229 5
c125 3 250 7 277 8 43 2 52 -2 82 -32z m-2353 -296 c32 -36 33 -60 7 -119 -40
-86 -16 -143 80 -191 66 -34 94 -74 83 -121 -13 -54 -78 -95 -130 -80 -85 24
-176 94 -218 166 -43 73 -51 218 -16 307 9 25 46 62 71 71 35 14 95 -2 123
-33z m573 -395 c284 -50 404 -106 404 -190 0 -46 -16 -78 -50 -98 -38 -23 -67
-21 -120 7 -59 31 -131 52 -255 71 -125 20 -147 29 -168 64 -32 55 -19 118 31
145 34 19 57 19 158 1z m597 -435 c39 -44 37 -94 -9 -181 -67 -127 -172 -195
-388 -249 -150 -38 -385 -60 -446 -41 -76 23 -93 121 -31 174 26 22 41 25 152
30 225 10 399 56 480 125 29 25 43 48 55 88 12 42 23 60 47 75 46 29 103 20
140 -21z m-2003 -226 c25 -25 35 -80 21 -116 -18 -49 -59 -64 -182 -71 -61 -3
-162 -16 -224 -28 -65 -13 -124 -19 -140 -15 -95 24 -101 170 -7 195 139 37
313 61 429 58 68 -2 86 -6 103 -23z m619 -20 c251 -21 260 -24 269 -112 4 -47
2 -54 -26 -82 -37 -37 -36 -37 -317 -10 -115 11 -218 20 -228 20 -11 0 -34 15
-53 34 -25 25 -34 42 -34 68 1 73 47 111 125 104 28 -3 146 -13 264 -22z
m-1355 -238 c46 -43 48 -83 7 -148 -38 -60 -66 -78 -119 -78 -82 0 -128 82
-88 158 16 30 73 87 96 95 38 14 70 6 104 -27z m-216 -1067 l3 -66 -48 4 c-58
6 -80 -12 -85 -72 l-3 -40 63 -3 62 -3 0 -59 0 -59 -61 -3 -60 -3 -2 -230 -2
-230 -72 -3 -73 -3 0 236 0 235 -45 0 -45 0 0 59 0 60 43 3 42 3 7 67 c12 129
72 180 203 175 l70 -2 3 -66z m393 44 c1 -16 2 -46 3 -68 l1 -39 -47 3 c-40 2
-49 -1 -62 -21 -8 -13 -16 -39 -18 -58 l-3 -35 63 -3 62 -3 0 -59 0 -60 -60 0
-60 0 -2 -232 -3 -233 -72 -3 -73 -3 0 236 0 235 -45 0 -45 0 0 59 0 60 43 3
42 3 7 68 c12 126 68 176 196 177 72 0 72 0 73 -27z m1856 1 c22 -22 25 -32
20 -67 -7 -52 -36 -77 -89 -77 -52 0 -88 35 -88 85 0 79 100 116 157 59z
m3912 0 c47 -60 10 -144 -64 -144 -48 0 -70 13 -85 49 -26 63 15 121 86 121
34 0 47 -5 63 -26z m-6608 -18 c2 -2 2 -34 1 -70 l-4 -66 -156 -2 -157 -3 -3
-92 -3 -93 146 0 146 0 -3 -67 -3 -68 -143 -3 -143 -3 3 -92 3 -92 168 -3 167
-2 0 -70 0 -70 -242 2 -243 3 -3 385 c-1 212 0 391 3 397 3 10 59 13 233 13
126 0 231 -2 233 -4z m2319 -121 l0 -85 63 0 62 0 0 -57 -1 -58 -62 -3 -62 -3
0 -152 c0 -188 6 -203 81 -194 l49 6 0 -60 c0 -55 -2 -60 -26 -69 -36 -14
-109 -12 -147 4 -42 17 -83 66 -97 114 -5 20 -10 108 -10 195 l0 157 -45 0
-45 0 0 60 0 60 45 0 44 0 3 73 3 72 60 11 c33 7 66 12 73 13 9 1 12 -22 12
-84z m-1056 -90 c92 -39 147 -126 154 -247 l5 -78 -197 0 -196 0 0 -23 c0 -13
13 -42 30 -65 50 -69 136 -80 214 -27 l36 25 51 -31 50 -32 -33 -34 c-60 -63
-101 -78 -208 -78 -86 0 -100 3 -142 27 -99 59 -152 158 -152 283 0 180 144
318 312 299 23 -3 58 -12 76 -19z m2513 -7 c91 -42 153 -153 153 -271 l0 -47
-200 0 c-228 0 -224 2 -171 -82 21 -33 40 -49 66 -58 50 -16 118 -5 155 26
l30 25 55 -33 56 -33 -45 -42 c-57 -51 -119 -73 -210 -73 -116 0 -201 55 -255
165 -32 64 -33 72 -29 154 3 67 10 97 30 136 73 142 226 198 365 133z m840 1
c37 -18 93 -73 93 -92 0 -3 -21 -20 -46 -38 l-46 -31 -37 36 c-31 30 -44 36
-81 36 -50 0 -80 -21 -80 -56 0 -37 35 -60 123 -79 45 -10 98 -29 119 -42 89
-60 87 -208 -4 -276 -47 -35 -91 -47 -168 -47 -55 0 -78 6 -128 31 -34 17 -71
43 -82 59 l-21 29 53 36 c50 34 54 35 68 17 31 -37 64 -52 117 -52 57 0 93 23
93 58 0 32 -32 50 -124 72 -49 11 -102 30 -117 41 -73 52 -90 171 -35 243 27
36 67 62 116 76 42 13 141 1 187 -21z m559 6 c91 -37 148 -132 156 -257 l4
-68 -193 0 c-105 0 -194 -4 -197 -9 -9 -14 13 -63 41 -93 53 -55 145 -60 203
-11 l29 24 46 -26 c25 -15 48 -32 52 -38 8 -13 -47 -60 -102 -89 -51 -27 -159
-35 -221 -18 -63 18 -145 94 -174 162 -33 76 -33 203 -1 275 24 55 92 126 139
145 71 28 153 30 218 3z m1941 -7 c48 -22 125 -104 121 -127 -2 -8 -30 -26
-62 -40 -50 -21 -60 -23 -64 -11 -3 8 -19 27 -35 43 -23 22 -39 27 -77 27 -58
0 -94 -26 -121 -84 -60 -133 34 -289 158 -262 30 7 78 45 85 68 4 10 17 7 57
-11 70 -33 75 -41 49 -77 -46 -66 -143 -114 -227 -114 -79 0 -140 27 -203 90
-70 71 -93 135 -86 244 14 212 221 342 405 254z m578 2 c96 -42 155 -151 155
-286 l0 -34 -193 0 c-107 0 -196 -3 -199 -6 -11 -11 12 -68 38 -96 54 -55 146
-60 204 -11 l29 24 46 -26 c25 -15 47 -31 51 -36 8 -14 -41 -57 -102 -90 -48
-25 -67 -29 -131 -29 -65 0 -83 4 -134 31 -63 34 -99 74 -129 142 -64 149 -6
342 123 409 79 40 164 43 242 8z m-5798 -1 c48 -23 125 -105 121 -127 -2 -8
-30 -26 -62 -41 -49 -21 -60 -23 -64 -11 -3 8 -18 27 -33 42 -52 53 -152 31
-187 -40 -42 -84 -34 -178 22 -237 57 -60 131 -59 191 2 l35 36 43 -23 c69
-38 73 -44 48 -79 -74 -104 -226 -140 -346 -82 -113 54 -167 141 -169 271 -1
95 14 146 63 208 57 71 123 102 220 102 55 0 86 -5 118 -21z m801 -281 l-3
-293 -72 -3 -73 -3 0 296 0 295 75 0 75 0 -2 -292z m302 102 c36 -104 68 -190
71 -190 3 0 34 86 70 190 l63 190 78 0 c43 0 78 -4 78 -9 0 -10 -198 -538
-212 -564 -8 -15 -20 -17 -81 -15 l-72 3 -44 115 c-42 111 -167 432 -178 458
-4 9 16 12 79 12 l84 0 64 -190z m2580 153 l0 -37 16 23 c23 32 73 51 134 51
l50 0 0 -64 0 -63 -54 -6 c-63 -6 -110 -28 -128 -60 -9 -15 -15 -83 -18 -207
l-5 -185 -72 -3 -73 -3 0 296 0 295 75 0 75 0 0 -37z m459 -154 c35 -104 67
-187 72 -182 4 4 35 90 69 191 l63 182 78 0 c44 0 79 -3 79 -6 0 -3 -18 -51
-40 -107 -21 -56 -70 -185 -109 -287 l-69 -185 -71 -3 c-81 -3 -71 -14 -130
138 -66 173 -158 414 -166 433 -6 15 1 17 76 17 l84 0 64 -191z m581 -104 l0
-296 -72 3 -73 3 -3 293 -2 292 75 0 75 0 0 -295z m-4873 -651 l23 -6 -27 -50
c-30 -55 -66 -88 -94 -88 -18 0 -18 2 2 58 32 86 47 99 96 86z m2863 -300 l0
-274 -26 0 c-17 0 -28 6 -31 20 -5 19 -5 19 -33 -1 -76 -57 -207 -20 -255 71
-41 79 -22 204 40 259 59 52 143 62 202 25 12 -8 25 -14 28 -14 3 0 5 42 5 93
0 52 2 96 5 99 3 2 18 3 35 0 l30 -4 0 -274z m1470 6 l0 -280 -30 0 c-24 0
-30 4 -30 22 0 19 -1 20 -17 6 -10 -9 -38 -22 -61 -29 -51 -15 -115 -2 -163
31 -65 47 -90 179 -49 259 49 96 166 136 247 85 12 -8 25 -14 28 -14 3 0 5 42
5 94 l0 95 33 4 c17 2 33 5 35 5 1 1 2 -124 2 -278z m-1278 246 c23 -34 -4
-69 -49 -64 -23 2 -29 9 -31 33 -3 19 2 33 14 42 19 14 54 8 66 -11z m-4084
-28 l3 -28 -105 0 -106 0 0 -85 0 -84 93 -3 92 -3 0 -30 0 -30 -92 -3 -91 -3
-4 -79 -3 -79 110 -3 110 -3 0 -30 0 -30 -142 -3 -143 -3 0 266 0 266 138 -3
137 -3 3 -27z m364 -126 c49 -29 58 -65 58 -227 l0 -146 -32 3 -33 3 -5 143
c-5 136 -6 145 -29 163 -14 11 -39 19 -61 19 -22 0 -47 -8 -61 -19 -23 -18
-24 -27 -29 -163 l-5 -143 -32 -3 -33 -3 0 195 0 196 30 0 c21 0 30 -5 30 -16
0 -12 5 -14 18 -9 89 38 129 40 184 7z m929 17 c52 -18 97 -56 120 -101 31
-61 24 -161 -15 -212 -76 -100 -195 -112 -287 -29 -92 83 -83 243 16 311 58
40 109 50 166 31z m413 -17 c47 -28 55 -50 27 -73 l-24 -20 -27 26 c-44 42
-120 33 -120 -15 0 -36 12 -45 90 -64 76 -19 120 -58 120 -107 0 -111 -144
-165 -252 -94 -42 28 -46 40 -21 67 21 24 27 23 59 -7 20 -18 38 -25 68 -25
47 0 66 13 66 46 0 29 -17 41 -79 55 -32 7 -66 22 -87 41 -30 26 -34 36 -34
77 0 54 20 83 70 106 41 18 100 12 144 -13z m582 -3 c47 -29 62 -58 38 -76
-26 -19 -40 -16 -68 12 -35 35 -93 34 -135 -1 -62 -52 -62 -154 -1 -216 39
-39 105 -40 150 -2 27 23 35 25 56 16 32 -15 30 -24 -10 -60 -98 -86 -231 -59
-290 59 -41 82 -31 170 25 234 57 64 162 80 235 34z m349 20 c59 -17 119 -82
134 -146 23 -96 -23 -193 -111 -233 -131 -60 -267 36 -268 188 0 89 46 157
125 186 50 18 69 19 120 5z m441 -4 c84 -25 134 -96 134 -190 0 -70 -17 -112
-63 -152 -58 -51 -129 -65 -195 -37 -93 38 -145 138 -122 234 15 62 70 126
125 145 51 18 61 18 121 0z m1376 -11 c55 -29 63 -54 66 -221 l4 -153 -36 0
-36 0 0 124 c0 136 -9 177 -45 196 -31 17 -93 7 -119 -19 -17 -18 -20 -36 -23
-158 l-3 -138 -33 0 -32 0 0 190 0 190 24 3 c15 3 30 -3 38 -14 10 -14 15 -15
27 -5 39 32 111 34 168 5z m374 7 c64 -29 74 -50 74 -162 0 -125 7 -158 36
-169 16 -7 21 -14 17 -29 -4 -16 -13 -21 -41 -21 -19 0 -43 7 -52 15 -15 14
-22 13 -65 -6 -76 -34 -158 -11 -191 52 -49 95 42 180 177 165 l62 -6 -6 36
c-9 52 -32 74 -80 74 -28 0 -51 -8 -74 -26 -32 -25 -35 -25 -53 -9 -23 21 -12
43 33 70 64 38 106 42 163 16z m894 -6 c63 -33 109 -109 110 -180 0 -66 -40
-139 -95 -170 -68 -41 -118 -43 -185 -8 -46 23 -60 37 -83 83 -25 47 -28 63
-24 113 8 92 55 149 147 178 30 9 96 1 130 -16z m367 6 c23 -11 47 -29 53 -42
11 -19 9 -24 -11 -40 -23 -17 -25 -17 -50 7 -30 28 -89 33 -113 8 -20 -19 -20
-24 -1 -51 9 -13 34 -25 65 -32 73 -16 108 -37 127 -76 15 -31 15 -37 -1 -80
-22 -57 -60 -79 -137 -79 -45 -1 -64 5 -97 27 -47 30 -51 45 -22 72 19 17 20
16 50 -9 23 -19 43 -26 74 -26 47 0 66 13 66 46 0 29 -17 41 -79 55 -32 7 -66
22 -87 41 -30 26 -34 36 -34 77 0 54 20 84 70 105 47 20 77 19 127 -3z m-5534
-3 c2 -7 24 -67 47 -133 23 -66 46 -123 49 -127 4 -4 30 54 58 130 l51 137 41
3 c22 2 41 -1 41 -5 0 -9 -82 -217 -106 -268 -7 -16 -20 -48 -27 -70 -12 -35
-18 -40 -49 -43 -20 -2 -39 3 -45 10 -11 13 -143 357 -143 371 0 12 78 8 83
-5z m412 -183 l0 -190 -32 -3 -33 -3 0 196 0 196 33 -3 32 -3 0 -190z m2396
168 c0 -16 3 -22 6 -15 8 21 60 42 103 42 39 0 40 -1 40 -35 0 -35 0 -35 -46
-35 -37 0 -51 -5 -75 -29 l-29 -29 0 -131 0 -131 -35 0 -35 0 0 188 c0 104 3
192 7 195 3 4 19 7 35 7 24 0 28 -4 29 -27z m714 -168 l0 -190 -32 -3 -33 -3
0 196 0 196 33 -3 32 -3 0 -190z"/>
<path d="M2786 3181 c-33 -22 -66 -68 -66 -93 0 -16 13 -18 126 -18 l126 0 -6
28 c-21 86 -111 128 -180 83z"/>
<path d="M5292 3180 c-32 -20 -72 -74 -72 -97 0 -10 32 -13 126 -13 l127 0 -7
33 c-3 18 -21 46 -41 65 -41 38 -83 42 -133 12z"/>
<path d="M6688 3170 c-34 -28 -63 -82 -51 -94 4 -3 60 -6 125 -6 l118 0 0 26
c0 17 -14 40 -39 65 -51 51 -99 54 -153 9z"/>
<path d="M9213 3180 c-32 -19 -78 -92 -66 -104 9 -9 241 -7 247 2 2 4 -4 27
-14 49 -31 69 -103 92 -167 53z"/>
<path d="M6047 2079 c-57 -58 -57 -162 0 -215 40 -37 114 -34 154 5 27 27 29
35 29 105 0 98 -21 126 -98 134 -48 4 -54 2 -85 -29z"/>
<path d="M7521 2084 c-59 -49 -65 -162 -11 -216 24 -23 37 -28 80 -28 44 0 56
4 81 29 27 27 29 35 29 101 0 82 -9 104 -50 125 -45 23 -94 19 -129 -11z"/>
<path d="M3586 2095 c-37 -28 -56 -69 -56 -118 0 -84 45 -136 119 -137 114 -1
162 167 70 244 -35 30 -101 35 -133 11z"/>
<path d="M4914 2077 c-87 -79 -35 -237 78 -237 78 0 124 60 116 149 -11 113
-115 160 -194 88z"/>
<path d="M5366 2089 c-127 -100 -17 -307 124 -234 80 41 80 191 1 238 -40 23
-92 22 -125 -4z"/>
<path d="M7126 1950 c-76 -24 -55 -120 25 -120 36 0 86 43 94 81 4 17 5 32 3
34 -9 9 -97 13 -122 5z"/>
<path d="M7971 2084 c-61 -51 -63 -149 -6 -210 27 -29 39 -34 76 -34 25 0 55
7 67 16 75 52 66 214 -14 244 -45 18 -90 12 -123 -16z"/>
</g>
</svg>
